<svg width="80" height="80" viewBox="0 0 80 80" fill="none" xmlns="http://www.w3.org/2000/svg">
<path d="M67.8994 13.0002H21.7326C20.5815 13.0002 19.6398 13.942 19.6398 15.093V47.1201H13.4871C11.5617 47.1201 10 48.6818 10 50.6072V50.9629C10 52.1061 10.565 53.1185 11.4152 53.7542C10.5572 54.3899 10 55.3996 10 56.5455V56.9012C10 58.0444 10.565 59.0568 11.4152 59.6925C10.5572 60.3282 10 61.3379 10 62.4837V62.8395C10 64.7649 11.5617 66.3266 13.4871 66.3266H67.8991C69.0502 66.3266 69.9919 65.3927 69.9919 64.2338V46.6257C69.9919 46.2412 69.678 45.9272 69.2934 45.9272C68.9088 45.9272 68.5949 46.2412 68.5949 46.6257V64.2338C68.5949 64.6183 68.281 64.9323 67.8964 64.9323H29.962C30.4094 64.3463 30.6814 63.6269 30.6814 62.8395V62.4837C30.6814 61.3406 30.1164 60.3282 29.2662 59.6925C30.1242 59.0568 30.6814 58.0471 30.6814 56.9012V56.5455C30.6814 55.4023 30.1164 54.3899 29.2662 53.7542C29.5251 53.5659 29.7475 53.3435 29.9437 53.0924C32.9154 58.4708 38.6081 61.874 44.8234 61.874C54.2071 61.874 61.8375 54.2355 61.8375 44.8519C61.8375 35.4682 54.2064 27.8378 44.8234 27.8378C35.4398 27.8378 27.8094 35.4689 27.8094 44.8519C27.8094 45.655 27.8722 46.4424 27.9847 47.2167C27.7335 47.1617 27.4745 47.1199 27.2025 47.1199H21.0419V24.7825H68.603V40.3447C68.603 40.7292 68.917 41.0431 69.3015 41.0431C69.6861 41.0431 70 40.7292 70 40.3447L69.9974 15.0928C69.9974 13.9417 69.0557 13 67.9046 13L67.8994 13.0002ZM29.288 62.4814V62.8372C29.288 63.9882 28.3463 64.9299 27.1952 64.9299H13.4874C12.3363 64.9299 11.3946 63.9882 11.3946 62.8372V62.4814C11.3946 61.3303 12.3363 60.3886 13.4874 60.3886H27.1952C28.3463 60.3886 29.288 61.3303 29.288 62.4814ZM29.288 56.5431V56.8989C29.288 58.05 28.3463 58.9917 27.1952 58.9917H13.4874C12.3363 58.9917 11.3946 58.05 11.3946 56.8989V56.5431C11.3946 55.3921 12.3363 54.4504 13.4874 54.4504H27.1952C28.3463 54.4504 29.288 55.3921 29.288 56.5431ZM29.1964 44.8524C29.1964 36.2382 36.1993 29.2326 44.8162 29.2326C53.4304 29.2326 60.436 36.2356 60.436 44.8524C60.436 53.4666 53.4331 60.4776 44.8162 60.4776C38.7262 60.4776 33.1804 56.912 30.6349 51.3872C30.648 51.2486 30.6768 51.1073 30.6768 50.9608V50.605C30.6768 49.5875 30.2294 48.6797 29.5336 48.0388C29.3113 47.0134 29.1909 45.9382 29.1909 44.8447L29.1964 44.8524ZM29.288 50.6154V50.9712C29.288 52.1222 28.3463 53.064 27.1952 53.064H13.4874C12.3363 53.064 11.3946 52.1222 11.3946 50.9712V50.6154C11.3946 49.4644 12.3363 48.5226 13.4874 48.5226H27.1952C28.3463 48.5226 29.288 49.4644 29.288 50.6154ZM21.7332 14.3947H67.9001C68.2847 14.3947 68.5986 14.7086 68.5986 15.0932V23.3886H21.0354V15.0932C21.0354 14.7087 21.3487 14.3947 21.7332 14.3947ZM24.0484 21.0707H40.3639C40.7485 21.0707 41.0624 20.7568 41.0624 20.3722V17.4083C41.0624 17.0238 40.7485 16.7098 40.3639 16.7098H24.0484C23.6638 16.7098 23.3499 17.0238 23.3499 17.4083V20.3722C23.3499 20.7568 23.6638 21.0707 24.0484 21.0707ZM24.7468 18.1068H39.6681V19.6764H24.7468V18.1068ZM47.04 21.8189C48.6514 21.8189 49.9621 20.5083 49.9621 18.8968C49.9621 17.2854 48.6515 15.9748 47.04 15.9748C45.4286 15.9748 44.118 17.2854 44.118 18.8968C44.118 20.5083 45.4286 21.8189 47.04 21.8189ZM47.04 17.3665C47.885 17.3665 48.5677 18.0493 48.5677 18.8942C48.5677 19.7392 47.885 20.4219 47.04 20.4219C46.1951 20.4219 45.5124 19.7392 45.5124 18.8942C45.5124 18.0493 46.1951 17.3665 47.04 17.3665ZM55.2022 21.8189C56.8136 21.8189 58.1242 20.5083 58.1242 18.8968C58.1242 17.2854 56.8137 15.9748 55.2022 15.9748C53.5907 15.9748 52.2801 17.2854 52.2801 18.8968C52.2801 20.5083 53.5907 21.8189 55.2022 21.8189ZM55.2022 17.3665C56.0471 17.3665 56.7299 18.0493 56.7299 18.8942C56.7299 19.7392 56.0471 20.4219 55.2022 20.4219C54.3572 20.4219 53.6745 19.7392 53.6745 18.8942C53.6745 18.0493 54.3572 17.3665 55.2022 17.3665ZM63.359 21.8189C64.9704 21.8189 66.281 20.5083 66.281 18.8968C66.281 17.2854 64.9704 15.9748 63.359 15.9748C61.7475 15.9748 60.4369 17.2854 60.4369 18.8968C60.4369 20.5083 61.7475 21.8189 63.359 21.8189ZM63.359 17.3665C64.2039 17.3665 64.8867 18.0493 64.8867 18.8942C64.8867 19.7392 64.2039 20.4219 63.359 20.4219C62.514 20.4219 61.8313 19.7392 61.8313 18.8942C61.8313 18.0493 62.514 17.3665 63.359 17.3665ZM44.8167 58.9025C52.5596 58.9025 58.8667 52.6033 58.8667 44.8525C58.8667 44.6354 58.8458 44.4209 58.8327 44.2037C58.8327 44.1697 58.8536 44.1409 58.8536 44.1069C58.8536 44.052 58.8327 44.0023 58.8196 43.9474C58.3514 36.6223 52.2614 30.7967 44.8192 30.7967C37.3769 30.7967 31.3337 36.5728 30.8187 43.8556C30.7899 43.9315 30.769 44.0152 30.769 44.1068C30.769 44.1617 30.7899 44.2035 30.7978 44.2532C30.7899 44.4494 30.769 44.643 30.769 44.8471C30.769 52.59 37.0682 58.8971 44.819 58.8971L44.8167 58.9025ZM44.8167 57.5056C37.8821 57.5056 32.2393 51.9048 32.1683 44.9831C32.3357 45.0799 32.4901 45.2133 32.6706 45.3729C33.131 45.7836 33.7039 46.2937 34.7974 46.2937C35.8934 46.2937 36.4716 45.7836 36.9242 45.3729C37.3087 45.0302 37.5598 44.8079 38.1301 44.8079C38.703 44.8079 38.9542 45.0302 39.3361 45.3729C39.7965 45.7836 40.3694 46.2937 41.4707 46.2937C42.572 46.2937 43.1449 45.7836 43.5975 45.3729C43.9821 45.0302 44.2332 44.8079 44.8035 44.8079C45.3764 44.8079 45.6275 45.0302 46.0095 45.3729C46.4699 45.7836 47.0428 46.2937 48.1363 46.2937C49.2323 46.2937 49.8105 45.7836 50.2709 45.3729C50.6554 45.0302 50.9066 44.8079 51.4769 44.8079C52.0498 44.8079 52.3009 45.0302 52.6828 45.3729C53.1432 45.7836 53.7162 46.2937 54.8175 46.2937C55.9188 46.2937 56.4917 45.7836 56.9521 45.3729C57.1404 45.2055 57.2948 45.0721 57.4674 44.9753C57.3968 51.8945 51.7542 57.5031 44.819 57.5031L44.8167 57.5056ZM44.8167 32.1988C51.3383 32.1988 56.7244 37.1587 57.3941 43.5078C56.7584 43.6752 56.3607 44.031 56.0207 44.3319C55.6361 44.6746 55.385 44.8969 54.8147 44.8969C54.2418 44.8969 53.9907 44.6746 53.6087 44.3319C53.1483 43.9212 52.5754 43.4111 51.4741 43.4111C50.3728 43.4111 49.7999 43.9212 49.3395 44.3319C48.9549 44.6746 48.7038 44.8969 48.1335 44.8969C47.5606 44.8969 47.3095 44.6746 46.9275 44.3319C46.4671 43.9212 45.8942 43.4111 44.8007 43.4111C43.7047 43.4111 43.1265 43.9212 42.674 44.3319C42.2894 44.6746 42.0383 44.8969 41.4732 44.8969C40.9081 44.8969 40.6492 44.6746 40.2672 44.3319C39.8068 43.9212 39.2339 43.4111 38.1404 43.4111C37.0444 43.4111 36.4662 43.9212 36.0137 44.3319C35.6291 44.6746 35.378 44.8969 34.8077 44.8969C34.2348 44.8969 33.9836 44.6746 33.6017 44.3319C33.2669 44.031 32.8614 43.6753 32.2414 43.5078C32.9111 37.1589 38.2974 32.1935 44.8269 32.1935L44.8167 32.1988ZM69.9929 42.8562V44.1119C69.9929 44.4964 69.679 44.8104 69.2944 44.8104C68.9098 44.8104 68.5959 44.4965 68.5959 44.1119V42.8562C68.5959 42.4717 68.9098 42.1577 69.2944 42.1577C69.679 42.1577 69.9929 42.4717 69.9929 42.8562Z" fill="black"/>
</svg>
